# xmcd
#
# Track frame offsets:
#	182
#	10242
#	20485
#	27562
#	37162
#	43850
#	54220
#	67320
#	81507
#	93025
#	100827
#	107897
#	117915
#	125672
#	136485
#	146762
#	162262
#	173920
#	182235
#	190140
#	198775
#	205417
#	214732
#	223135
#
# Disc length: 3117 seconds
#
# Revision: 0
# Processed by: cddbd v1.5.2PL0 Copyright (c) Steve Scherf et al.
# Submitted via: dBpowerAMP V4.0
#
DISCID=700c2b18
DTITLE=Jules Decorte - Ik zou wel eens willen weten
DYEAR=1900
DGENRE=
TTITLE0=Ik zou wel eens willen weten
TTITLE1=Die forellen
TTITLE2=M'n dochter van twee
TTITLE3=Je vous aime
TTITLE4=Het leven is
TTITLE5=Madeleine
TTITLE6=De leerschool van het leven
TTITLE7='t electrisch huis
TTITLE8=De vogels
TTITLE9=Als jij het wilt
TTITLE10=Wij nederlanders
TTITLE11=Waar blijft de tijd
TTITLE12=Mijnheet NN
TTITLE13=Illusie
TTITLE14=Wij leven vrij
TTITLE15=De school
TTITLE16=De Zwerver
TTITLE17=Schoenmakertje
TTITLE18=Raadseltjes
TTITLE19=Een beetje zeer
TTITLE20=Het kleine mannetje
TTITLE21=De speurhond
TTITLE22=De enkeling
TTITLE23='n petit ca ca
EXTD=
EXTT0=
EXTT1=
EXTT2=
EXTT3=
EXTT4=
EXTT5=
EXTT6=
EXTT7=
EXTT8=
EXTT9=
EXTT10=
EXTT11=
EXTT12=
EXTT13=
EXTT14=
EXTT15=
EXTT16=
EXTT17=
EXTT18=
EXTT19=
EXTT20=
EXTT21=
EXTT22=
EXTT23=
PLAYORDER=
